<svg width="214" height="61" viewBox="0 0 214 61" fill="none" xmlns="http://www.w3.org/2000/svg">
<path fill-rule="evenodd" clip-rule="evenodd" d="M0 0C60.3544 0 46.1979 45.5276 34.5251 48.2521V45.3281C45.4528 33.6873 36.5115 14.8607 10.6816 14.8607V60.6808H0V0ZM7.69944 3.46741C6.19073 3.46754 4.96757 4.68726 4.96745 6.19174C4.96745 7.69633 6.19066 8.91594 7.69944 8.91608C9.20833 8.91608 10.4314 7.69641 10.4314 6.19174C10.4313 4.68718 9.20825 3.46741 7.69944 3.46741Z" fill="#E9BD58"/>
<path fill-rule="evenodd" clip-rule="evenodd" d="M69.0377 0C8.68368 0 22.8398 45.5271 34.5126 48.2521V45.3281C23.5849 33.6873 32.5264 14.8608 58.3561 14.8607V60.6808H69.0377V0ZM61.3382 3.46741C62.8471 3.46741 64.0701 4.68718 64.0702 6.19174C64.0702 7.69641 62.8471 8.91608 61.3382 8.91608C59.8293 8.91608 58.6063 7.69641 58.6063 6.19174C58.6064 4.68718 59.8294 3.46741 61.3382 3.46741Z" fill="#E9BD58"/>
<path d="M89.7715 22.3559H87.1133L87.946 0.223389H91.4369L98.3227 17.0543L105.241 0.223389H108.059L108.892 22.3559H106.073L105.433 6.09985L98.9632 21.9727H97.0416L90.412 5.74853L89.7715 22.3559Z" fill="#3B2B08"/>
<path d="M123.089 18.2041L123.057 17.8528C122.545 20.5036 121.2 22.6753 118.029 22.6753C114.282 22.6753 113.225 20.28 113.225 16.6072V7.18571L116.332 7.02603V15.17C116.332 18.5873 117.068 20.0564 119.374 20.0564C121.84 20.0564 122.993 17.5653 122.993 13.3177V7.18571L126.1 7.02603V22.3559H123.25L123.089 18.2041Z" fill="#3B2B08"/>
<path d="M129.562 17.4376H130.908C131.292 19.6732 132.637 20.9507 134.943 20.9507C136.64 20.9507 138.146 20.4077 138.146 18.6831C138.146 17.2459 137.313 16.6072 134.879 16.0004C131.772 15.202 130.075 13.9883 130.075 11.3056C130.075 8.49514 132.349 6.70665 135.68 6.70665C138.914 6.70665 140.996 8.39933 140.676 11.2417H139.267C139.171 9.8365 138.082 8.55901 136 8.55901C134.302 8.55901 133.085 9.19776 133.085 10.7627C133.085 12.2637 134.142 12.647 136.768 13.3496C140.035 14.2119 141.252 15.681 141.252 18.0124C141.252 20.8868 138.914 22.6753 135.423 22.6753C131.484 22.6753 129.562 20.7271 129.562 17.4376Z" fill="#3B2B08"/>
<path d="M143.763 15.17C143.763 10.4433 146.326 6.70665 150.553 6.70665C154.653 6.70665 156.062 9.32551 156.062 11.8486C156.062 12.615 155.934 13.9883 155.87 14.4035H146.902V14.9145C146.902 18.4276 148.407 20.5035 151.386 20.5035C153.948 20.5035 155.229 19.0983 155.453 17.0543H156.574C156.574 20.5036 154.396 22.6753 150.681 22.6753C146.39 22.6753 143.763 20.1203 143.763 15.17ZM150.745 9.13388C148.76 9.13388 147.446 10.5072 147.03 12.7747H153.5C153.532 12.6789 153.564 12.3276 153.564 11.9124C153.564 10.5711 153.051 9.13388 150.745 9.13388Z" fill="#3B2B08"/>
<path d="M169.816 18.2041L169.784 17.8528C169.272 20.5036 167.927 22.6753 164.756 22.6753C161.009 22.6753 159.952 20.28 159.952 16.6072V7.18571L163.059 7.02603V15.17C163.059 18.5873 163.795 20.0564 166.101 20.0564C168.567 20.0564 169.72 17.5653 169.72 13.3177V7.18571L172.827 7.02603V22.3559H169.976L169.816 18.2041Z" fill="#3B2B08"/>
<path d="M189.901 22.3559H186.794V14.2119C186.794 10.7946 186.186 9.29357 183.912 9.29357C181.446 9.29357 180.421 11.8486 180.421 16.0323V22.3559H177.314V7.18571L180.004 7.02603L180.325 11.625V11.7527C180.773 9.00613 181.99 6.70665 185.225 6.70665C188.684 6.70665 189.74 8.75064 189.869 11.9444C190.381 9.10195 191.726 6.70665 194.833 6.70665C198.58 6.70665 199.381 9.10195 199.381 12.7747V22.3559H196.274V14.2119C196.274 10.7946 195.665 9.29357 193.392 9.29357C190.861 9.29357 189.901 12.1999 189.901 16.192V22.3559Z" fill="#3B2B08"/>
<path d="M87.4335 38.6439H94.1912C98.5469 38.6439 101.718 40.113 101.718 44.201C101.718 47.3947 99.5077 48.7361 96.8174 49.2471C100.308 49.6623 102.742 51.1314 102.742 54.6764C102.742 58.956 99.4116 60.6806 95.5043 60.6806H87.4335V38.6439ZM93.6468 41.0392H90.7323V48.1932H93.4546C95.9527 48.1932 98.4508 47.5544 98.4508 44.6481C98.4508 41.8376 96.4331 41.0392 93.6468 41.0392ZM94.4474 50.4926H90.7323V58.2853H94.7677C97.2338 58.2853 99.4757 57.3911 99.4757 54.357C99.4757 51.4508 97.2658 50.4926 94.4474 50.4926Z" fill="#3B2B08"/>
<path d="M105.325 53.0476C105.325 48.0973 108.207 45.0314 112.339 45.0314C116.246 45.0314 119.289 47.8099 119.289 53.1115C119.289 58.0937 116.662 61 112.339 61C108.271 61 105.325 58.2853 105.325 53.0476ZM116.182 52.9837C116.182 49.6623 114.805 47.4586 112.307 47.4586C109.937 47.4586 108.431 49.5345 108.431 52.9837C108.431 56.8162 109.937 58.7963 112.339 58.7963C114.613 58.7963 116.182 56.912 116.182 52.9837Z" fill="#3B2B08"/>
<path d="M122.8 45.5104L125.426 45.3507L125.682 49.9816C126.13 47.3308 127.219 45.0314 129.909 45.0314C132.408 45.0314 133.144 47.4267 133.144 48.9597C133.144 49.6303 133.048 50.0455 132.92 50.4926H131.607C131.607 50.0136 131.575 49.5026 131.415 49.0555C131.159 48.257 130.582 47.6502 129.429 47.6502C126.739 47.6502 125.906 50.4926 125.906 55.0277V60.6806H122.8V45.5104Z" fill="#3B2B08"/>
<path d="M134.943 53.0796C134.943 48.1293 137.474 45.0314 140.997 45.0314C143.206 45.0314 144.968 46.4047 145.833 48.9916V38.1649L148.939 38.0052V60.6806H146.473L146.153 56.3052C145.576 59.3393 144.039 61 140.997 61C137.986 61 134.943 58.6047 134.943 53.0796ZM145.833 52.9199C145.833 49.5026 143.975 47.4905 141.989 47.4905C139.619 47.4905 138.114 49.6942 138.114 53.0157C138.114 57.0717 140.004 58.7963 142.021 58.7963C144.295 58.7963 145.833 56.912 145.833 52.9199Z" fill="#3B2B08"/>
<path d="M152.552 53.4947C152.552 48.768 155.114 45.0314 159.342 45.0314C163.441 45.0314 164.85 47.6502 164.85 50.1733C164.85 50.9398 164.722 52.3131 164.658 52.7282H155.691V53.2392C155.691 56.7523 157.196 58.8283 160.174 58.8283C162.737 58.8283 164.018 57.423 164.242 55.379H165.363C165.363 58.8283 163.185 61 159.47 61C155.178 61 152.552 58.445 152.552 53.4947ZM159.534 47.4586C157.548 47.4586 156.235 48.8319 155.819 51.0994H162.288C162.32 51.0036 162.352 50.6523 162.352 50.2371C162.352 48.8958 161.84 47.4586 159.534 47.4586Z" fill="#3B2B08"/>
<path d="M167.876 57.0078C167.876 54.5487 169.413 52.4089 173.481 52.4089C174.505 52.4089 175.819 52.6644 176.587 53.0157V50.9078C176.587 48.4806 175.466 47.2989 173.32 47.2989C171.207 47.2989 170.054 48.7042 169.83 50.333H168.612C168.612 47.4905 170.182 45.0314 174.121 45.0314C177.804 45.0314 179.534 47.0754 179.534 50.333V56.401C179.534 59.0199 180.142 59.5309 180.879 59.5309C181.071 59.5309 181.263 59.467 181.455 59.3393L181.744 59.8822C181.455 60.4251 180.623 60.9361 179.63 60.9361C177.932 60.9361 176.843 60.3613 176.619 58.2534C175.819 59.7864 174.377 61 172.007 61C169.285 61 167.876 59.2754 167.876 57.0078ZM170.95 56.7523C170.95 58.1895 171.783 58.9879 173.224 58.9879C175.626 58.9879 176.587 56.5927 176.587 54.389V54.2293C176.011 54.0696 175.114 53.878 174.249 53.878C171.975 53.878 170.95 54.9958 170.95 56.7523Z" fill="#3B2B08"/>
<path d="M193.993 56.5288L193.961 56.1775C193.448 58.8283 192.103 61 188.933 61C185.185 61 184.129 58.6047 184.129 54.9319V45.5104L187.235 45.3507V53.4947C187.235 56.912 187.972 58.3811 190.278 58.3811C192.744 58.3811 193.897 55.89 193.897 51.6424V45.5104L197.003 45.3507V60.6806H194.153L193.993 56.5288Z" fill="#3B2B08"/>
<path d="M209.786 60.6806L206.006 54.4529L202.259 60.6806H199.665L204.661 52.856L200.081 45.5104H203.604L207.031 51.0675L210.426 45.5104H212.988L208.344 52.6644L213.501 60.6806H209.786Z" fill="#3B2B08"/>
</svg>
