<?xml version="1.0" encoding="UTF-8"?>
<svg id="Calque_1" xmlns="http://www.w3.org/2000/svg" version="1.1" viewBox="0 0 412.61 96.47">
  <!-- Generator: Adobe Illustrator 30.1.0, SVG Export Plug-In . SVG Version: 2.1.1 Build 136)  -->
  <defs>
    <style>
      .st0 {
        fill: #e9bd58;
      }
    </style>
  </defs>
  <path class="st0" d="M96.04,0v95.94H0V.35l.35-.35h95.69ZM36.56,31.44c1.41-5.72,4.52-10.51,8.28-14.91-.12-1.46-3.31.82-3.86,1.18-4.95,3.16-9.41,8.23-11.86,13.58-.77,1.69-1.32,4.42-2.07,5.79-.38.68-1.95,1.71-2.63,2.46-5.59,6.07-9.9,15.77-8.92,24.17.08.71.48,1.18,1.06.57.36-.38,1.31-3.67,1.69-4.55,1.39-3.17,4.7-8.27,7.44-10.36.23-.18.29-.45.69-.34.75,8.46,5.39,16.21,11.8,21.61-3.52,1.44-8.08,1.96-11.91,1.73-1.66-.1-4.72-1.03-6.02-.94-.63.04-1.07.34-.7.95.22.36,3.35,1.98,3.97,2.27,6.11,2.88,12.89,3.79,19.57,2.74,1.36-.21,4.17-1.29,5.16-1.29.63,0,2.66.84,3.58,1.02,7.85,1.55,16.46.43,23.39-3.7.8-.48,1.83-.84,1.62-1.97-6.26,1.11-12.69,1.54-18.74-.81,6.65-5.34,10.94-13.14,12.03-21.62,3.07,2.63,5.69,6.13,7.44,9.78.49,1.03,1.76,5.03,2.16,5.47.54.6.97-.18,1.05-.79.91-6.73-2.75-16.12-6.86-21.37-1.04-1.33-4.07-3.92-4.59-4.9s-.87-3.02-1.34-4.21c-2.88-7.23-8.81-13.96-16.01-17.04l-.37.56c.82,1.5,2.16,2.76,3.2,4.22,2.26,3.17,4.12,6.88,4.9,10.71-5.6-1.86-11.32-2.46-17.17-1.55-2.05.32-3.96,1.1-5.97,1.55h-.01Z"/>
  <path class="st0" d="M135.03,50.17c1.09.12,3.25.79,4.28,1.27,8.02,3.76,9,15.42.61,19.29l-.14.47c2.86,1.02,5.42,3.43,6.59,6.25,1.65,3.98,1.08,8.78-1.26,12.37-5.76,8.82-19.04,5.28-27.89,6.04l-.34-.27v-45.43h18.17-.02ZM131.1,57.57c-1.17-.16-2.61.11-3.82,0v11.1c2.99-.13,6.52.07,7.75-3.24s-.11-7.34-3.93-7.85h0ZM127.28,88.31h5.21c.78,0,2.7-1.21,3.22-1.87,1.86-2.32,1.6-7.64-.95-9.42-.23-.16-1.91-.96-2.04-.96h-5.44v12.25h0Z"/>
  <path class="st0" d="M212.55,50.17c5.86.59,11.14,4.96,11.68,10.99s-1.92,9.84-7.4,12.48c2.62,2.26,3.78,5.76,4.92,8.95,1.57,4.4,2.74,8.97,4.33,13.36h-10.62c-1.3-3.87-2.16-7.88-3.43-11.74-1.2-3.63-2.14-8.22-7-7.68v19.07l-.34.27-9.54.03-.53-.3v-45.43h17.93,0ZM210.01,58.03c-1.5-.21-3.42.16-4.98,0v10.63h4.28c.1,0,1.22-.33,1.44-.41,4.51-1.66,4.26-9.52-.74-10.22Z"/>
  <path class="st0" d="M231.65,50.17h16.55c1.36,0,4.76,1.18,6.06,1.81,13.92,6.72,13.97,32.17,2,40.69-6.93,4.93-16.17,2.61-24.08,3.23l-.53-.3v-45.43h0ZM242.06,88.08h4.28c9.96,0,9.9-23.28,4.29-28.33-.68-.61-3.23-1.96-4.05-1.96h-4.51v30.29h0Z"/>
  <path class="st0" d="M168.42,49.54c26.32-3,26.86,49.29.2,46.84-21.82-2.01-22.07-44.35-.2-46.84ZM169.34,58.56c-7.06.78-6.74,12.89-6.43,18.08s1.92,11.45,8.45,10.75c6.6-.71,6.64-12.34,6.36-17.22-.3-5.28-1.52-12.36-8.38-11.61Z"/>
  <path class="st0" d="M350.59,50.17v32.02c0,.8.79,2.87,1.29,3.57,1.71,2.39,6.03,2.71,8.21.83.76-.66,1.84-3,1.84-3.94v-32.48h10.41v31.34c-.56,8.93-5.36,14.38-14.45,14.91-11.24.66-17.74-5.2-17.72-16.53v-29.72h10.42Z"/>
  <path class="st0" d="M387.39,50.17l6.36,12.25,6.48-12.25h11.22l-10.92,19.5-.89,2.1,12.96,23.82-.56.33-9.78-.05-.75-.28-7.99-14.45-7.51,14.4c-.24.33-.69.37-1.06.4-3.07.23-6.64-.4-9.76-.05l-.53-.3,13.11-24.04-11.95-21.38h11.57Z"/>
  <path class="st0" d="M314.88,49.75c3.05.18,6.72-.4,9.69-.06.33.04.61.02.78.38l11.6,45.77h-9.49l-2.55-9.5h-9.96l-2.7,9.57h-9.24l-.53-.32,12.4-45.85h0ZM323.52,78.84l-3.59-16.42-3.59,16.42h7.18Z"/>
  <polygon class="st0" points="297.6 50.17 297.6 58.03 281.4 58.03 281.4 68.66 296.33 68.66 296.67 69.01 296.67 76.18 296.33 76.52 281.4 76.52 281.4 87.85 298.29 87.85 298.29 95.6 270.99 95.71 270.99 50.17 297.6 50.17"/>
  <path class="st0" d="M221,.23v29.13h-10.3c-2.93,0-6.08-3.72-6.81-6.37-2.43-8.81,4.49-15.49,13.18-12.59V.23h3.93ZM217.07,13.87c-5.74-2.41-10.22.8-9.73,7.06.16,2,1.79,5.19,4.06,5.19h5.67v-12.25Z"/>
  <polygon class="st0" points="119.18 .23 127.74 20.58 136.53 .23 140.7 .23 128.56 29.37 127.85 29.61 115.01 .23 119.18 .23"/>
  <path class="st0" d="M242.52,20.11h-13.42c.17,5.95,5.83,7.19,10.64,5.2.9-.38,1.62-1.03,2.55-1.27v3.35c-5.89,4.37-15.05,2.96-16.79-4.96-3.3-15.07,17.82-17.72,17.02-2.32ZM238.82,17.8c-.3-6.46-8.95-6.1-9.72,0h9.72Z"/>
  <path class="st0" d="M188.14,20.11h-13.42c.19,5.9,5.86,7.22,10.64,5.2.89-.38,1.59-1.11,2.55-1.27v3.35c-3.44,2.84-9.72,3.36-13.3.57-5.88-4.58-4.82-16.03,2.88-17.92,6.78-1.67,11.12,3.63,10.65,10.06h0ZM184.44,17.8c-.02-6.37-9.31-6.16-9.49,0h9.49Z"/>
  <rect class="st0" x="152.96" y=".23" width="3.93" height="29.13"/>
  <polygon class="st0" points="166.39 29.36 162.45 29.36 162.45 .23 166.04 .23 166.39 .58 166.39 29.36"/>
  <rect class="st0" x="143.71" y="10.17" width="3.7" height="19.19"/>
  <path class="st0" d="M144.01,2.62c2.19-1.93,5.39,1.37,3.06,3.4-2.19,1.91-5.29-1.43-3.06-3.4Z"/>
  <path class="st0" d="M60.59,42.81c-.55,8.72-5.34,17.46-12.38,22.59-7.17-5.17-11.74-13.77-12.54-22.59,7.88-3.21,17.06-3.24,24.93,0h0Z"/>
</svg>