<?xml version="1.0" encoding="UTF-8"?>
<svg id="Calque_1" xmlns="http://www.w3.org/2000/svg" version="1.1" viewBox="0 0 214 61">
  <!-- Generator: Adobe Illustrator 30.1.0, SVG Export Plug-In . SVG Version: 2.1.1 Build 136)  -->
  <defs>
    <style>
      .st0 {
        fill-rule: evenodd;
      }

      .st0, .st1 {
        fill: #e9bd58;
      }
    </style>
  </defs>
  <path class="st0" d="M0,0c60.35,0,46.2,45.53,34.53,48.25v-2.92c10.93-11.64,1.99-30.47-23.84-30.47v45.82H0V0ZM7.7,3.47c-1.51,0-2.73,1.22-2.73,2.72,0,1.5,1.22,2.72,2.73,2.72,1.51,0,2.73-1.22,2.73-2.72,0-1.5-1.22-2.72-2.73-2.72Z"/>
  <path class="st0" d="M69.04,0C8.68,0,22.84,45.53,34.51,48.25v-2.92c-10.93-11.64-1.99-30.47,23.84-30.47v45.82h10.68V0ZM61.34,3.47c1.51,0,2.73,1.22,2.73,2.72,0,1.5-1.22,2.72-2.73,2.72s-2.73-1.22-2.73-2.72c0-1.5,1.22-2.72,2.73-2.72Z"/>
  <path class="st1" d="M89.77,22.36h-2.66l.83-22.13h3.49l6.89,16.83L105.24.22h2.82l.83,22.13h-2.82l-.64-16.26-6.47,15.87h-1.92l-6.63-16.22-.64,16.61Z"/>
  <path class="st1" d="M123.09,18.2l-.03-.35c-.51,2.65-1.86,4.82-5.03,4.82-3.75,0-4.8-2.4-4.8-6.07V7.19l3.11-.16v8.14c0,3.42.74,4.89,3.04,4.89,2.47,0,3.62-2.49,3.62-6.74v-6.13l3.11-.16v15.33h-2.85l-.16-4.15Z"/>
  <path class="st1" d="M129.56,17.44h1.35c.38,2.24,1.73,3.51,4.03,3.51,1.7,0,3.2-.54,3.2-2.27,0-1.44-.83-2.08-3.27-2.68-3.11-.8-4.8-2.01-4.8-4.69s2.27-4.6,5.6-4.6,5.32,1.69,5,4.54h-1.41c-.1-1.41-1.18-2.68-3.27-2.68-1.7,0-2.91.64-2.91,2.2s1.06,1.88,3.68,2.59c3.27.86,4.48,2.33,4.48,4.66,0,2.87-2.34,4.66-5.83,4.66-3.94,0-5.86-1.95-5.86-5.24Z"/>
  <path class="st1" d="M143.76,15.17c0-4.73,2.56-8.46,6.79-8.46s5.51,2.62,5.51,5.14c0,.77-.13,2.14-.19,2.55h-8.97v.51c0,3.51,1.51,5.59,4.48,5.59,2.56,0,3.84-1.41,4.07-3.45h1.12c0,3.45-2.18,5.62-5.89,5.62-4.29,0-6.92-2.56-6.92-7.51ZM150.74,9.13c-1.99,0-3.3,1.37-3.71,3.64h6.47c.03-.1.06-.45.06-.86,0-1.34-.51-2.78-2.82-2.78Z"/>
  <path class="st1" d="M169.82,18.2l-.03-.35c-.51,2.65-1.86,4.82-5.03,4.82-3.75,0-4.8-2.4-4.8-6.07V7.19l3.11-.16v8.14c0,3.42.74,4.89,3.04,4.89,2.47,0,3.62-2.49,3.62-6.74v-6.13l3.11-.16v15.33h-2.85l-.16-4.15Z"/>
  <path class="st1" d="M189.9,22.36h-3.11v-8.14c0-3.42-.61-4.92-2.88-4.92-2.47,0-3.49,2.56-3.49,6.74v6.32h-3.11V7.19l2.69-.16.32,4.6v.13c.45-2.75,1.67-5.05,4.9-5.05,3.46,0,4.51,2.04,4.64,5.24.51-2.84,1.86-5.24,4.96-5.24,3.75,0,4.55,2.4,4.55,6.07v9.58h-3.11v-8.14c0-3.42-.61-4.92-2.88-4.92-2.53,0-3.49,2.91-3.49,6.9v6.16Z"/>
  <path class="st1" d="M87.43,38.64h6.76c4.36,0,7.53,1.47,7.53,5.56,0,3.19-2.21,4.54-4.9,5.05,3.49.42,5.92,1.88,5.92,5.43,0,4.28-3.33,6-7.24,6h-8.07v-22.04ZM93.65,41.04h-2.91v7.15h2.72c2.5,0,5-.64,5-3.55s-2.02-3.61-4.8-3.61ZM94.45,50.49h-3.72v7.79h4.04c2.47,0,4.71-.89,4.71-3.93s-2.21-3.86-5.03-3.86Z"/>
  <path class="st1" d="M105.32,53.05c0-4.95,2.88-8.02,7.01-8.02,3.91,0,6.95,2.78,6.95,8.08,0,4.98-2.63,7.89-6.95,7.89-4.07,0-7.01-2.71-7.01-7.95ZM116.18,52.98c0-3.32-1.38-5.53-3.88-5.53s-3.88,2.08-3.88,5.53c0,3.83,1.51,5.81,3.91,5.81,2.27,0,3.84-1.88,3.84-5.81Z"/>
  <path class="st1" d="M122.8,45.51l2.63-.16.26,4.63c.45-2.65,1.54-4.95,4.23-4.95,2.5,0,3.24,2.4,3.24,3.93,0,.67-.1,1.09-.22,1.53h-1.31c0-.48-.03-.99-.19-1.44-.26-.8-.83-1.41-1.99-1.41-2.69,0-3.52,2.84-3.52,7.38v5.65h-3.11v-15.17Z"/>
  <path class="st1" d="M134.94,53.08c0-4.95,2.53-8.05,6.05-8.05,2.21,0,3.97,1.37,4.84,3.96v-10.83l3.11-.16v22.68h-2.47l-.32-4.38c-.58,3.03-2.11,4.69-5.16,4.69s-6.05-2.4-6.05-7.92ZM145.83,52.92c0-3.42-1.86-5.43-3.84-5.43-2.37,0-3.88,2.2-3.88,5.53,0,4.06,1.89,5.78,3.91,5.78,2.27,0,3.81-1.88,3.81-5.88Z"/>
  <path class="st1" d="M152.55,53.49c0-4.73,2.56-8.46,6.79-8.46s5.51,2.62,5.51,5.14c0,.77-.13,2.14-.19,2.55h-8.97v.51c0,3.51,1.51,5.59,4.48,5.59,2.56,0,3.84-1.41,4.07-3.45h1.12c0,3.45-2.18,5.62-5.89,5.62-4.29,0-6.92-2.56-6.92-7.51ZM159.53,47.46c-1.99,0-3.3,1.37-3.71,3.64h6.47c.03-.1.06-.45.06-.86,0-1.34-.51-2.78-2.82-2.78Z"/>
  <path class="st1" d="M167.88,57.01c0-2.46,1.54-4.6,5.6-4.6,1.02,0,2.34.26,3.11.61v-2.11c0-2.43-1.12-3.61-3.27-3.61s-3.27,1.41-3.49,3.03h-1.22c0-2.84,1.57-5.3,5.51-5.3,3.68,0,5.41,2.04,5.41,5.3v6.07c0,2.62.61,3.13,1.35,3.13.19,0,.38-.06.58-.19l.29.54c-.29.54-1.12,1.05-2.11,1.05-1.7,0-2.79-.57-3.01-2.68-.8,1.53-2.24,2.75-4.61,2.75-2.72,0-4.13-1.72-4.13-3.99ZM170.95,56.75c0,1.44.83,2.24,2.27,2.24,2.4,0,3.36-2.4,3.36-4.6v-.16c-.58-.16-1.47-.35-2.34-.35-2.27,0-3.3,1.12-3.3,2.87Z"/>
  <path class="st1" d="M193.99,56.53l-.03-.35c-.51,2.65-1.86,4.82-5.03,4.82-3.75,0-4.8-2.4-4.8-6.07v-9.42l3.11-.16v8.14c0,3.42.74,4.89,3.04,4.89,2.47,0,3.62-2.49,3.62-6.74v-6.13l3.11-.16v15.33h-2.85l-.16-4.15Z"/>
  <path class="st1" d="M209.79,60.68l-3.78-6.23-3.75,6.23h-2.59l5-7.82-4.58-7.35h3.52l3.43,5.56,3.39-5.56h2.56l-4.64,7.15,5.16,8.02h-3.72Z"/>
</svg>